<?xml version="1.0" encoding="utf-8"?>
<!-- Generator: Adobe Illustrator 13.0.0, SVG Export Plug-In . SVG Version: 6.00 Build 14948)  -->
<!DOCTYPE svg PUBLIC "-//W3C//DTD SVG 1.1//EN" "http://www.w3.org/Graphics/SVG/1.1/DTD/svg11.dtd">
<svg version="1.1" id="Layer_1" xmlns="http://www.w3.org/2000/svg" xmlns:xlink="http://www.w3.org/1999/xlink" x="0px" y="0px"
	 width="200.756px" height="59.756px" viewBox="0 0 200.756 59.756" enable-background="new 0 0 200.756 59.756"
	 xml:space="preserve">
<g>
	<polygon fill-rule="evenodd" clip-rule="evenodd" fill="none" points="0,0 200.756,0 200.756,59.756 0,59.756 0,0 	"/>
	<path fill-rule="evenodd" clip-rule="evenodd" d="M52.175,14.695c2.08,3.51,1.917,8.872-0.325,12.251
		c-2.697,4.29-7.182,6.661-12.218,6.175c-4.452-0.357-8.807-3.835-10.432-8.027c-1.82-4.582-0.65-10.074,2.925-13.486
		c3.379-3.412,8.677-4.647,13.226-2.892C48.08,9.69,50.777,12.063,52.175,14.695L52.175,14.695z"/>
	<path fill-rule="evenodd" clip-rule="evenodd" d="M99.295,9.658l0.845-0.942h2.339v9.034H98.97c0-2.178-0.715-4.127-2.535-5.427
		c-2.015-1.495-5.297-1.333-7.377-0.032c-3.25,2.242-4.192,6.044-3.705,9.846c0.455,2.892,2.047,5.979,5.004,7.215
		c2.47,1.008,5.524,0.486,7.344-1.561c0.639-0.335,0.52-2.123,0.52-3.185c-0.032-0.552-0.422-1.105-0.975-1.3
		c-0.748-0.325-1.755-0.13-2.632-0.195V20.35h11.471v2.762c-1.04,0.032-2.308-0.163-2.729,0.942l-0.146,0.78v7.799h-3.624
		l-0.585-1.332c-3.347,2.6-9.131,2.307-12.739,0.357c-4.354-2.242-6.727-6.759-6.369-11.634c0.195-4.81,3.705-9.457,8.222-11.179
		C91.528,7.351,96.175,7.838,99.295,9.658L99.295,9.658z"/>
	<path fill-rule="evenodd" clip-rule="evenodd" d="M189.343,10.34c0.293-0.52,0.65-1.04,0.91-1.592c0.568,0,1.332-0.032,2.015-0.032
		v8.839h-2.925c-0.26-2.209-1.43-4.452-3.574-5.395c-1.885-0.813-4.614-1.04-6.369,0.163c-0.78,0.552-1.235,1.3-1.235,2.21
		c0,0.877,0.487,1.625,1.235,2.145c0.909,0.553,1.917,0.813,2.989,0.975c3.77,0.877,8.579,0.975,10.172,5.297
		c0.747,2.697,0.39,5.915-1.593,7.961c-2.567,2.697-6.922,2.697-10.334,1.82c-1.364-0.391-2.632-0.975-3.867-1.625l-0.585,1.527
		h-2.34v-9.456h2.925c0.065,2.145,0.91,4.127,2.86,5.329c2.015,1.332,5.036,2.047,7.376,0.846c1.17-0.65,2.015-1.918,1.788-3.348
		c-0.65-2.697-3.607-2.665-5.752-3.185c-3.38-0.715-7.734-0.975-8.937-4.939c-0.683-2.86-0.033-5.85,2.372-7.734
		c2.925-2.307,7.799-2.567,11.113-0.91C188.206,9.528,188.758,9.918,189.343,10.34L189.343,10.34z"/>
	<path fill-rule="evenodd" clip-rule="evenodd" d="M18.736,11.478c-1.3,0.162-3.022-0.488-3.77,0.91
		c-0.325,0.487-0.357,1.138-0.325,1.755v15.695c3.477-0.195,8.156,0.975,9.521-3.054c0.488-1.333,0.423-2.892,0.423-4.419h2.665
		v10.269H5.834v-2.795c1.235-0.031,2.665,0.26,3.347-0.909c0.357-0.618,0.374-1.397,0.374-2.145V12.55
		c-0.098-0.585-0.731-0.91-1.251-1.007c-0.78-0.098-1.658-0.033-2.47-0.065V8.716h12.901V11.478L18.736,11.478z"/>
	<path fill-rule="evenodd" clip-rule="evenodd" d="M73.135,24.314l0.033,0.032V13.85c-0.098-0.813-0.52-1.657-1.333-2.08
		c-0.748-0.357-1.657-0.26-2.535-0.292V8.716H80.09v2.762c-0.975,0.032-2.08-0.163-2.698,0.65c-0.682,0.78-0.715,1.841-0.715,2.86
		v17.645h-4.095L60.527,15.67l-0.033-0.032l0.033,12.381c0,0.737,0.357,1.333,1.007,1.657c0.813,0.326,1.82,0.162,2.762,0.162v2.795
		H53.28v-2.795c1.083,0,2.6,0.217,3.055-0.779c0.292-0.553,0.439-1.202,0.406-1.885V13.72c-0.163-0.715-0.406-1.43-1.121-1.853
		c-0.65-0.422-1.527-0.39-2.34-0.39V8.716h9.132L73.135,24.314L73.135,24.314z"/>
	<path fill-rule="evenodd" clip-rule="evenodd" d="M140.598,24.314l0.033,0.032V13.85c-0.098-0.813-0.521-1.657-1.332-2.08
		c-0.748-0.357-1.658-0.26-2.535-0.292V8.716h10.789v2.762c-0.976,0.032-2.08-0.163-2.697,0.65c-0.683,0.78-0.715,1.841-0.715,2.86
		v17.645h-4.095L127.989,15.67l-0.032-0.032l0.032,12.381c0,0.737,0.357,1.333,1.008,1.657c0.812,0.326,1.819,0.162,2.762,0.162
		v2.795h-11.016v-2.795c1.083,0,2.6,0.217,3.054-0.779c0.293-0.553,0.439-1.202,0.406-1.885V13.72
		c-0.162-0.715-0.406-1.43-1.121-1.853c-0.649-0.422-1.527-0.39-2.339-0.39V8.716h9.131L140.598,24.314L140.598,24.314z"/>
	<path fill-rule="evenodd" clip-rule="evenodd" d="M118.761,11.478c-1.203-0.033-2.633-0.228-3.315,0.942
		c-0.324,0.552-0.309,1.267-0.341,1.95v13.454c0.065,0.715,0.374,1.397,1.023,1.754c0.78,0.424,1.755,0.195,2.633,0.293v2.762
		h-12.316v-2.795c1.104,0.033,2.372,0.229,3.152-0.649c0.324-0.455,0.455-0.975,0.487-1.527V13.493
		c-0.098-0.683-0.357-1.43-1.04-1.787c-0.466-0.228-1.738-0.228-2.584-0.228V8.716h12.301V11.478L118.761,11.478z"/>
	<path fill-rule="evenodd" clip-rule="evenodd" d="M171.6,18.692h-2.795c0.163-2.632-0.13-5.231-2.469-6.597
		c-0.65-0.357-1.398-0.552-2.178-0.617h-6.475v7.182c1.616,0,3.688,0.13,4.46-1.105c0.357-0.845,0.26-1.934,0.26-2.925h2.502v11.179
		h-2.502c-0.065-1.397,0.228-2.99-1.105-3.77c-0.779-0.406-2.363-0.39-3.614-0.39v8.188h7.547c1.3-0.098,2.665-0.682,3.217-1.981
		c0.521-1.268,0.357-3.38,0.357-5.183h2.795v9.959h-22.65v-2.795c1.268-0.064,2.795,0.326,3.478-0.974
		c0.26-0.65,0.244-1.397,0.244-2.145V13.525c0-0.707-0.374-1.397-1.057-1.788c-0.779-0.39-1.787-0.195-2.665-0.26V8.716h22.65
		V18.692L171.6,18.692z"/>
	<path fill-rule="evenodd" clip-rule="evenodd" fill="#FFFFFF" d="M46.228,14.045c2.209,3.152,2.438,8.222,0.748,11.699
		c-1.007,2.34-3.412,4.258-6.044,4.127c-2.275,0.033-4.257-1.267-5.427-3.217c-2.177-3.38-2.145-8.774-0.032-12.187
		c1.365-2.307,3.77-3.574,6.467-3.185C43.628,11.543,45.156,12.518,46.228,14.045L46.228,14.045z"/>
	<path fill-rule="evenodd" clip-rule="evenodd" d="M89.059,36.467c0.617,0.943,1.202,1.918,1.82,2.861l1.787-2.861h12.901
		c0.618,0.943,1.138,1.918,1.788,2.861l1.787-2.844h34.771l-4.907,3.428h-6.76l-3.249,2.307h-6.369l-3.282,2.535h-6.435l-3.12,2.34
		h-5.297v7.41h-10.78v-7.395h-5.273l-3.152-2.355h-6.402l-3.315-2.535h-6.337l-3.25-2.307h-6.792l-4.875-3.445H89.059L89.059,36.467
		z"/>
	<path fill-rule="evenodd" clip-rule="evenodd" fill="#FFFFFF" d="M90.813,41.277c0.91-1.234,1.689-2.6,2.6-3.867h11.438
		c0.845,1.301,1.723,2.6,2.567,3.9l2.372-3.9h31.164l-2.6,1.494H119.8c-0.39,0.391-0.812,0.666-1.234,1.057h11.438l-1.689,1.381
		h-14.916l-1.072,0.992c2.778,0,5.622,0,8.417,0l-1.885,1.43h-10.822l-1.17,1.023l4.16,0.033l-1.787,1.299h-4.745v-6.938h-10.78
		v6.938h-4.72c-0.585-0.455-1.203-0.846-1.755-1.299h4.127c-0.292-0.391-0.812-0.65-1.169-1.041H79.407
		c-0.618-0.455-1.268-0.941-1.885-1.43h8.352c-0.26-0.324-0.683-0.715-1.04-1.008H69.918c-0.585-0.455-1.17-0.91-1.722-1.365h11.471
		v-0.031l-1.235-1.041H59.876L57.31,37.41h31.131L90.813,41.277L90.813,41.277z"/>
	<polygon fill-rule="evenodd" clip-rule="evenodd" fill="#FFFFFF" points="102.024,41.959 96.305,41.959 94.94,40.01 103.357,40.01 
		102.024,41.959 	"/>
	<path fill-rule="evenodd" clip-rule="evenodd" fill="#FFFFFF" d="M98.645,46.705l-3.899,5.459V41.439
		C96.013,43.195,97.377,44.916,98.645,46.705L98.645,46.705z"/>
	<path fill-rule="evenodd" clip-rule="evenodd" fill="#FFFFFF" d="M99.75,46.672c1.137-1.756,2.438-3.477,3.672-5.232v10.334
		L99.75,46.672L99.75,46.672z"/>
	<polygon fill-rule="evenodd" clip-rule="evenodd" fill="#FFFFFF" points="99.23,45.924 97.02,42.936 101.31,42.936 99.23,45.924 	
		"/>
	<polygon fill-rule="evenodd" clip-rule="evenodd" fill="#FFFFFF" points="96.89,50.75 99.165,47.42 101.537,50.75 96.89,50.75 	"/>
	<path fill-rule="evenodd" clip-rule="evenodd" fill="#FFFFFF" d="M102.22,51.742c0.52,0.617,1.007,1.283,1.495,1.9h-8.969
		l1.333-1.9H102.22L102.22,51.742z"/>
</g>
</svg>
